<svg xmlns="http://www.w3.org/2000/svg" viewBox="0 0 72 112" role="img" aria-label="Yavoi Básico">
  <defs><linearGradient id="b" x1="0" y1="0" x2="1" y2="1"><stop stop-color="#fff"/><stop offset="1" stop-color="#cbd5df"/></linearGradient><linearGradient id="g" x1="0" y1="0" x2="0" y2="1"><stop stop-color="#254d6e"/><stop offset="1" stop-color="#06192c"/></linearGradient></defs>
  <rect x="9" y="6" width="54" height="100" rx="22" fill="url(#b)" stroke="#071d33" stroke-width="3"/>
  <path d="M17 42 23 20c1-4 5-7 9-7h8c4 0 8 3 9 7l6 22Z" fill="url(#g)"/><path d="M17 68h38l-4 24c-1 4-4 7-9 7H30c-5 0-8-3-9-7Z" fill="url(#g)"/>
  <path d="M13 51h46M14 61h44" stroke="#aebbc6" stroke-width="2"/><path d="M18 13h11M43 13h11" stroke="#ff650a" stroke-width="4" stroke-linecap="round"/>
  <g fill="#071d33"><rect x="3" y="28" width="7" height="21" rx="3"/><rect x="62" y="28" width="7" height="21" rx="3"/><rect x="3" y="69" width="7" height="21" rx="3"/><rect x="62" y="69" width="7" height="21" rx="3"/></g>
</svg>
