<svg xmlns="http://www.w3.org/2000/svg" viewBox="0 0 72 112" role="img" aria-label="Yavoi Grande">
  <defs><linearGradient id="b" x1="0" y1="0" x2="1" y2="1"><stop stop-color="#fff"/><stop offset="1" stop-color="#bcc8d3"/></linearGradient><linearGradient id="g" x1="0" y1="0" x2="0" y2="1"><stop stop-color="#315c7b"/><stop offset="1" stop-color="#06192c"/></linearGradient></defs>
  <rect x="6" y="4" width="60" height="104" rx="18" fill="url(#b)" stroke="#071d33" stroke-width="3"/><path d="M15 40 21 17h30l6 23Z" fill="url(#g)"/><path d="M15 67h42l-4 30H19Z" fill="url(#g)"/>
  <path d="M14 47h44M14 59h44M15 73h42" stroke="#9fadb9" stroke-width="2"/><path d="M16 11h12M44 11h12" stroke="#ff650a" stroke-width="4" stroke-linecap="round"/><path d="M13 20v75M59 20v75" stroke="#6f8191" stroke-width="2"/>
  <g fill="#071d33"><rect x="0" y="24" width="7" height="24" rx="3"/><rect x="65" y="24" width="7" height="24" rx="3"/><rect x="0" y="70" width="7" height="24" rx="3"/><rect x="65" y="70" width="7" height="24" rx="3"/></g>
</svg>
